<mxfile host="app.diagrams.net" modified="2020-09-18T04:38:50.843Z" agent="5.0 (Windows NT 10.0; Win64; x64) AppleWebKit/537.36 (KHTML, like Gecko) Chrome/85.0.4183.102 Safari/537.36" etag="lTdSZkduZVgKWa6HZqLm" version="13.7.3" type="github">
  <diagram id="Xf1krp--SoIZXwKtG77f" name="Page-1">
    <mxGraphModel dx="1019" dy="1699" grid="0" gridSize="10" guides="1" tooltips="1" connect="1" arrows="1" fold="1" page="1" pageScale="1" pageWidth="827" pageHeight="1169" math="0" shadow="0">
      <root>
        <mxCell id="0" />
        <mxCell id="1" parent="0" />
        <mxCell id="apDJ_KpteNmNt5EzHD-o-2" value="NATURAL" style="shape=cylinder3;whiteSpace=wrap;html=1;boundedLbl=1;backgroundOutline=1;size=15;fillColor=#fff2cc;strokeColor=#d6b656;" parent="1" vertex="1">
          <mxGeometry x="30" y="120" width="130" height="60" as="geometry" />
        </mxCell>
        <mxCell id="apDJ_KpteNmNt5EzHD-o-4" value="ORACLE CLOUD" style="ellipse;shape=cloud;whiteSpace=wrap;html=1;align=right;strokeColor=#6c8ebf;fillColor=#99CCFF;" parent="1" vertex="1">
          <mxGeometry x="140" y="-5" width="370" height="200" as="geometry" />
        </mxCell>
        <mxCell id="apDJ_KpteNmNt5EzHD-o-5" value="PREMIUM" style="shape=cylinder3;whiteSpace=wrap;html=1;boundedLbl=1;backgroundOutline=1;size=15;fillColor=#fff2cc;strokeColor=#d6b656;" parent="1" vertex="1">
          <mxGeometry x="220" y="60" width="100" height="50" as="geometry" />
        </mxCell>
        <mxCell id="apDJ_KpteNmNt5EzHD-o-6" value="INSIS" style="shape=cylinder3;whiteSpace=wrap;html=1;boundedLbl=1;backgroundOutline=1;size=15;fillColor=#fff2cc;strokeColor=#d6b656;" parent="1" vertex="1">
          <mxGeometry x="330" y="90" width="84" height="60" as="geometry" />
        </mxCell>
        <mxCell id="apDJ_KpteNmNt5EzHD-o-8" value="OSB SOA BUS (FISICO)" style="shape=cylinder3;whiteSpace=wrap;html=1;boundedLbl=1;backgroundOutline=1;size=15;rotation=90;fillColor=#d5e8d4;strokeColor=#82b366;" parent="1" vertex="1">
          <mxGeometry x="300" y="100" width="100" height="360" as="geometry" />
        </mxCell>
        <mxCell id="apDJ_KpteNmNt5EzHD-o-9" value="&lt;b&gt;&lt;font style=&quot;font-size: 24px&quot;&gt;SIGMA&lt;/font&gt;&lt;/b&gt;" style="shape=cube;whiteSpace=wrap;html=1;boundedLbl=1;backgroundOutline=1;darkOpacity=0.05;darkOpacity2=0.1;fillColor=#f8cecc;strokeColor=#b85450;" parent="1" vertex="1">
          <mxGeometry x="600" y="10" width="210" height="170" as="geometry" />
        </mxCell>
        <mxCell id="apDJ_KpteNmNt5EzHD-o-14" value="" style="html=1;shadow=0;dashed=0;align=center;verticalAlign=middle;shape=mxgraph.arrows2.arrow;dy=0.6;dx=40;direction=south;notch=0;fillColor=#fff2cc;strokeColor=#d6b656;" parent="1" vertex="1">
          <mxGeometry x="220" y="150" width="60" height="80" as="geometry" />
        </mxCell>
        <mxCell id="apDJ_KpteNmNt5EzHD-o-17" value="" style="html=1;shadow=0;dashed=0;align=center;verticalAlign=middle;shape=mxgraph.arrows2.arrow;dy=0.6;dx=40;direction=north;notch=0;fillColor=#fff2cc;strokeColor=#d6b656;" parent="1" vertex="1">
          <mxGeometry x="400" y="145" width="76" height="85" as="geometry" />
        </mxCell>
        <mxCell id="apDJ_KpteNmNt5EzHD-o-18" value="" style="html=1;shadow=0;dashed=0;align=center;verticalAlign=middle;shape=mxgraph.arrows2.bendDoubleArrow;dy=15;dx=38;arrowHead=55;rounded=0;rotation=-180;fillColor=#f8cecc;strokeColor=#b85450;" parent="1" vertex="1">
          <mxGeometry x="525" y="180" width="215" height="150" as="geometry" />
        </mxCell>
        <mxCell id="apDJ_KpteNmNt5EzHD-o-19" value="&lt;b&gt;MUD&lt;/b&gt;" style="shape=cylinder3;whiteSpace=wrap;html=1;boundedLbl=1;backgroundOutline=1;size=15;fillColor=#fff2cc;strokeColor=#d6b656;" parent="1" vertex="1">
          <mxGeometry x="20" y="400" width="150" height="80" as="geometry" />
        </mxCell>
        <mxCell id="apDJ_KpteNmNt5EzHD-o-20" value="" style="html=1;shadow=0;dashed=0;align=center;verticalAlign=middle;shape=mxgraph.arrows2.bendDoubleArrow;dy=15;dx=38;arrowHead=55;rounded=1;rotation=0;fillColor=#fff2cc;strokeColor=#d6b656;" parent="1" vertex="1">
          <mxGeometry x="70" y="290" width="100" height="110" as="geometry" />
        </mxCell>
        <mxCell id="_YbqaT_sTrwTwD5UA2Rh-1" value="" style="html=1;shadow=0;dashed=0;align=center;verticalAlign=middle;shape=mxgraph.arrows2.bendDoubleArrow;dy=15;dx=38;arrowHead=55;rounded=1;rotation=-90;fillColor=#fff2cc;strokeColor=#d6b656;" vertex="1" parent="1">
          <mxGeometry x="67.5" y="177.5" width="105" height="110" as="geometry" />
        </mxCell>
      </root>
    </mxGraphModel>
  </diagram>
</mxfile>
